<svg xmlns="http://www.w3.org/2000/svg" xmlns:xlink="http://www.w3.org/1999/xlink" width="672" zoomAndPan="magnify" viewBox="0 0 504 359.999987" height="480" preserveAspectRatio="xMidYMid meet" version="1.0"><defs><clipPath id="fdd95fe585"><path d="M 180 31.183594 L 264 31.183594 L 264 82 L 180 82 Z M 180 31.183594 " clip-rule="nonzero"/></clipPath></defs><rect x="-50.4" width="604.8" fill="#ffffff" y="-35.999999" height="431.999984" fill-opacity="1"/><rect x="-50.4" width="604.8" fill="#ffffff" y="-35.999999" height="431.999984" fill-opacity="1"/><path fill="#d9d9d9" d="M 101.503906 292.109375 C 115.164062 307.15625 142.882812 302.816406 160.738281 301.304688 C 205.6875 297.496094 249.9375 282.457031 295.464844 287.53125 C 316.328125 289.859375 373.742188 299.839844 384.074219 271.199219 C 390.351562 253.804688 341 267.640625 334.210938 268.199219 C 297.308594 271.242188 256.15625 276.191406 219.773438 267.648438 C 190.359375 260.738281 164.289062 263.132812 135.226562 270.132812 C 127.714844 271.941406 89.597656 278.992188 101.503906 292.109375 Z M 101.503906 292.109375 " fill-opacity="1" fill-rule="nonzero"/><path stroke-linecap="butt" transform="matrix(0.795004, 0, 0, 0.796173, 99.21953, 31.564041)" fill="none" stroke-linejoin="miter" d="M 175.858013 245.99914 L 239.355143 270.501122 L 43.355723 254.001289 L 103.359356 245.99914 " stroke="#000000" stroke-width="2" stroke-opacity="1" stroke-miterlimit="4"/><path stroke-linecap="butt" transform="matrix(0.795004, 0, 0, 0.796173, 99.21953, 31.564041)" fill-opacity="1" fill="#ffffff" fill-rule="nonzero" stroke-linejoin="miter" d="M 197.855742 201.499145 L 182.854834 120.501304 L 173.85822 148.001025 L 186.918296 216.198372 C 187.188539 217.621194 188.205633 218.783983 189.581412 219.240268 L 271.356753 246.499581 L 271.356753 240.999637 Z M 197.855742 201.499145 " stroke="#000000" stroke-width="2" stroke-opacity="1" stroke-miterlimit="4"/><path stroke-linecap="butt" transform="matrix(0.795004, 0, 0, 0.796173, 99.21953, 31.564041)" fill-opacity="1" fill="#ffffff" fill-rule="nonzero" stroke-linejoin="miter" d="M 121.858674 37.001258 L 121.858674 105.002353 L 143.424015 105.002353 L 143.424015 81.638629 C 143.424015 78.321981 146.111698 75.638244 149.428309 75.638244 L 167.858839 75.638244 C 170.064999 75.638244 171.858426 73.84745 171.858426 71.639623 L 171.858426 27.998227 C 171.858426 25.7904 170.064999 23.999606 167.858839 23.999606 L 134.854875 23.999606 C 127.676255 23.999606 121.858674 29.818459 121.858674 37.001258 Z M 121.858674 37.001258 " stroke="#000000" stroke-width="2" stroke-opacity="1" stroke-miterlimit="4"/><path stroke-linecap="butt" transform="matrix(0.795004, 0, 0, 0.796173, 99.21953, 31.564041)" fill-opacity="1" fill="#02d783" fill-rule="nonzero" stroke-linejoin="miter" d="M 72.060376 125.873685 C 72.507504 114.177104 82.039689 104.87479 93.743641 104.712883 L 159.20617 103.815033 C 172.526662 103.6335 183.989852 113.195847 186.200926 126.329969 L 190.357745 150.998765 L 181.356217 151.499206 L 175.356836 245.99914 L 103.364269 245.99914 L 79.96128 157.499591 L 70.856569 157.499591 Z M 72.060376 125.873685 " stroke="#000000" stroke-width="2" stroke-opacity="1" stroke-miterlimit="4"/><path stroke-linecap="butt" transform="matrix(0.795004, 0, 0, 0.796173, 99.21953, 31.564041)" fill-opacity="1" fill="#000000" fill-rule="nonzero" stroke-linejoin="miter" d="M 106.445032 299.394228 L 118.94497 295.621296 L 119.971891 311.777689 L 106.38607 313.73039 L 91.778242 298.197095 C 91.105092 297.485684 91.753674 296.332707 92.706893 296.533865 Z M 106.445032 299.394228 " stroke="#000000" stroke-width="2" stroke-opacity="1" stroke-miterlimit="4"/><path stroke-linecap="butt" transform="matrix(0.795004, 0, 0, 0.796173, 99.21953, 31.564041)" fill-opacity="1" fill="#ffffff" fill-rule="nonzero" stroke-linejoin="miter" d="M 319.62204 245.78817 C 318.791659 240.155756 313.180445 236.549637 307.711722 238.139273 L 115.338463 294.03166 L 120.178258 312.307567 L 281.714406 294.806853 C 305.972344 292.181991 323.184326 269.922181 319.62204 245.78817 Z M 319.62204 245.78817 " stroke="#000000" stroke-width="2" stroke-opacity="1" stroke-miterlimit="4"/><path fill="#ffffff" d="M 197.6875 77.742188 C 197.6875 78.164062 197.605469 78.570312 197.445312 78.960938 C 197.28125 79.351562 197.054688 79.695312 196.753906 79.992188 C 196.457031 80.292969 196.113281 80.523438 195.722656 80.683594 C 195.332031 80.847656 194.929688 80.925781 194.507812 80.925781 C 194.085938 80.925781 193.679688 80.847656 193.289062 80.683594 C 192.898438 80.523438 192.554688 80.292969 192.257812 79.992188 C 191.960938 79.695312 191.730469 79.351562 191.566406 78.960938 C 191.40625 78.570312 191.328125 78.164062 191.328125 77.742188 C 191.328125 77.320312 191.40625 76.914062 191.566406 76.523438 C 191.730469 76.132812 191.960938 75.789062 192.257812 75.488281 C 192.554688 75.191406 192.898438 74.960938 193.289062 74.800781 C 193.679688 74.636719 194.085938 74.558594 194.507812 74.558594 C 194.929688 74.558594 195.332031 74.636719 195.722656 74.800781 C 196.113281 74.960938 196.457031 75.191406 196.753906 75.488281 C 197.054688 75.789062 197.28125 76.132812 197.445312 76.523438 C 197.605469 76.914062 197.6875 77.320312 197.6875 77.742188 Z M 197.6875 77.742188 " fill-opacity="1" fill-rule="nonzero"/><path stroke-linecap="round" transform="matrix(0.795004, 0, 0, 0.796173, 99.21953, 31.564041)" fill="none" stroke-linejoin="miter" d="M 122.856114 55.017133 C 122.114176 54.384222 121.131476 54.001532 120.05542 54.001532 C 117.73625 54.001532 115.859294 55.792326 115.859294 58.000153 C 115.859294 60.207981 117.73625 61.998775 120.05542 61.998775 C 121.131476 61.998775 122.114176 61.616085 122.856114 60.983174 " stroke="#000000" stroke-width="2" stroke-opacity="1" stroke-miterlimit="4"/><path stroke-linecap="butt" transform="matrix(0.795004, 0, 0, 0.796173, 99.21953, 31.564041)" fill-opacity="1" fill="#000000" fill-rule="nonzero" stroke-linejoin="miter" d="M 176.855453 50.498445 C 176.855453 50.964542 176.76701 51.411014 176.590124 51.837861 C 176.413238 52.269614 176.157736 52.647398 175.833446 52.976119 C 175.504241 53.30484 175.125902 53.55506 174.698428 53.731686 C 174.26604 53.913219 173.818912 54.001532 173.357043 54.001532 C 172.895174 54.001532 172.448046 53.913219 172.015658 53.731686 C 171.588184 53.55506 171.209844 53.30484 170.88064 52.976119 C 170.556349 52.647398 170.300847 52.269614 170.123961 51.837861 C 169.947075 51.411014 169.858632 50.964542 169.858632 50.498445 C 169.858632 50.037255 169.947075 49.590783 170.123961 49.15903 C 170.300847 48.732183 170.556349 48.354399 170.88064 48.025678 C 171.209844 47.696957 171.588184 47.44183 172.015658 47.265204 C 172.448046 47.088578 172.895174 47.000265 173.357043 47.000265 C 173.818912 47.000265 174.26604 47.088578 174.698428 47.265204 C 175.125902 47.44183 175.504241 47.696957 175.833446 48.025678 C 176.157736 48.354399 176.413238 48.732183 176.590124 49.15903 C 176.76701 49.590783 176.855453 50.037255 176.855453 50.498445 Z M 176.855453 50.498445 " stroke="#000000" stroke-width="2" stroke-opacity="1" stroke-miterlimit="4"/><path stroke-linecap="butt" transform="matrix(0.795004, 0, 0, 0.796173, 99.21953, 31.564041)" fill-opacity="1" fill="#000000" fill-rule="nonzero" stroke-linejoin="miter" d="M 161.854545 50.498445 C 161.854545 50.964542 161.766102 51.411014 161.589216 51.837861 C 161.41233 52.269614 161.161742 52.647398 160.832537 52.976119 C 160.503333 53.30484 160.124994 53.55506 159.697519 53.731686 C 159.265132 53.913219 158.822917 54.001532 158.356135 54.001532 C 157.894266 54.001532 157.447137 53.913219 157.019663 53.731686 C 156.587275 53.55506 156.208936 53.30484 155.879732 52.976119 C 155.555441 52.647398 155.299939 52.269614 155.123053 51.837861 C 154.946167 51.411014 154.857724 50.964542 154.857724 50.498445 C 154.857724 50.037255 154.946167 49.590783 155.123053 49.15903 C 155.299939 48.732183 155.555441 48.354399 155.879732 48.025678 C 156.208936 47.696957 156.587275 47.44183 157.019663 47.265204 C 157.447137 47.088578 157.894266 47.000265 158.356135 47.000265 C 158.822917 47.000265 159.265132 47.088578 159.697519 47.265204 C 160.124994 47.44183 160.503333 47.696957 160.832537 48.025678 C 161.161742 48.354399 161.41233 48.732183 161.589216 49.15903 C 161.766102 49.590783 161.854545 50.037255 161.854545 50.498445 Z M 161.854545 50.498445 " stroke="#000000" stroke-width="2" stroke-opacity="1" stroke-miterlimit="4"/><path stroke-linecap="butt" transform="matrix(0.795004, 0, 0, 0.796173, 99.21953, 31.564041)" fill="none" stroke-linejoin="miter" d="M 161.854545 50.498445 L 169.858632 50.498445 " stroke="#000000" stroke-width="1" stroke-opacity="1" stroke-miterlimit="4"/><path fill="#000000" d="M 251.046875 39.027344 C 252.539062 40.082031 254.480469 42.015625 254.078125 44.070312 C 253.339844 47.820312 246.496094 46.039062 243.699219 46.679688 C 241.121094 47.265625 240.359375 50.625 238.117188 52.003906 C 233.777344 54.675781 230.007812 50.203125 226.230469 51.71875 C 222.167969 53.355469 221.457031 56.839844 216.375 56.839844 C 213.59375 56.839844 210.828125 56.851562 208.0625 57.132812 C 202.25 57.726562 203.664062 60.640625 202.863281 64.601562 C 202.601562 65.890625 201.914062 67.097656 201.214844 68.191406 C 199.84375 70.335938 198.175781 70.523438 196.628906 72.09375 C 195.863281 72.875 194.816406 67.226562 193.542969 66.035156 C 192.023438 64.613281 190.585938 62.691406 189.910156 60.714844 C 189.097656 58.328125 191.265625 56.183594 193.183594 55.140625 C 196.257812 53.476562 200.800781 53.242188 203.105469 50.375 C 204.074219 49.171875 204.742188 48.113281 205.554688 46.773438 C 207.332031 43.832031 209.765625 41.324219 213.265625 41.019531 C 216.8125 40.707031 222.539062 39.707031 223.472656 35.429688 C 224.316406 31.574219 230.292969 32.027344 232.636719 33.164062 C 234.585938 34.105469 236.386719 35.316406 238.289062 36.347656 C 240.511719 37.550781 243.273438 35.476562 245.636719 36.355469 C 247.511719 37.050781 249.398438 37.863281 251.046875 39.027344 Z M 251.046875 39.027344 " fill-opacity="1" fill-rule="nonzero"/><g clip-path="url(#fdd95fe585)"><path stroke-linecap="butt" transform="matrix(0.795004, 0, 0, 0.796173, 99.21953, 31.564041)" fill="none" stroke-linejoin="miter" d="M 190.976845 9.373974 C 192.853801 10.69867 195.29581 13.127281 194.789719 15.707986 C 193.861068 20.418019 185.252621 18.180753 181.734556 18.985384 C 178.491648 19.721326 177.533516 23.940731 174.713168 25.672649 C 169.254272 29.028547 164.512747 23.410852 159.761395 25.31449 C 154.651357 27.370223 153.757101 31.746628 147.36464 31.746628 C 143.86623 31.746628 140.387474 31.761347 136.908717 32.1146 C 129.597433 32.860355 131.376119 36.520442 130.368852 41.495414 C 130.039648 43.114488 129.174872 44.63053 128.295356 46.004289 C 126.570718 48.697839 124.472655 48.933341 122.52691 50.905667 C 121.563864 51.886924 120.247047 44.792437 118.645247 43.296021 C 116.733896 41.510133 114.925729 39.096242 114.075694 36.613662 C 113.053686 33.615922 115.780678 30.922373 118.193205 29.612395 C 122.060128 27.522318 127.774525 27.227941 130.673489 23.626728 C 131.892036 22.115593 132.732244 20.78599 133.754252 19.103135 C 135.989893 15.408703 139.051002 12.258869 143.453496 11.876178 C 147.914952 11.483676 155.11814 10.227667 156.292466 4.855286 C 157.353781 0.0127839 164.871432 0.581913 167.819531 2.009641 C 170.271366 3.192056 172.536489 4.713004 174.929362 6.008263 C 177.725142 7.519398 181.198985 4.914162 184.171651 6.018075 C 186.53013 6.891394 188.903349 7.911901 190.976845 9.373974 Z M 190.976845 9.373974 " stroke="#000000" stroke-width="2" stroke-opacity="1" stroke-miterlimit="4"/></g><path stroke-linecap="butt" transform="matrix(0.795004, 0, 0, 0.796173, 99.21953, 31.564041)" fill-opacity="1" fill="#000000" fill-rule="nonzero" stroke-linejoin="miter" d="M 169.858632 171.502125 C 169.858632 171.963316 169.77019 172.409788 169.58839 172.841541 C 169.411504 173.268388 169.160916 173.646171 168.831711 173.974892 C 168.502507 174.303614 168.124168 174.553834 167.696694 174.735366 C 167.269219 174.911993 166.822091 175.000306 166.355309 175.000306 C 165.89344 175.000306 165.446312 174.911993 165.018837 174.735366 C 164.58645 174.553834 164.20811 174.303614 163.883819 173.974892 C 163.554615 173.646171 163.299113 173.268388 163.122227 172.841541 C 162.945341 172.409788 162.856898 171.963316 162.856898 171.502125 C 162.856898 171.036028 162.945341 170.589557 163.122227 170.16271 C 163.299113 169.730957 163.554615 169.353173 163.883819 169.024452 C 164.20811 168.695731 164.58645 168.445511 165.018837 168.263978 C 165.446312 168.087352 165.89344 167.999039 166.355309 167.999039 C 166.822091 167.999039 167.269219 168.087352 167.696694 168.263978 C 168.124168 168.445511 168.502507 168.695731 168.831711 169.024452 C 169.160916 169.353173 169.411504 169.730957 169.58839 170.16271 C 169.77019 170.589557 169.858632 171.036028 169.858632 171.502125 Z M 169.858632 171.502125 " stroke="#000000" stroke-width="2" stroke-opacity="1" stroke-miterlimit="4"/><path stroke-linecap="butt" transform="matrix(0.795004, 0, 0, 0.796173, 99.21953, 31.564041)" fill-opacity="1" fill="#02d783" fill-rule="nonzero" stroke-linejoin="miter" d="M 121.858674 257.999911 L 225.92164 257.999911 L 277.483885 272.002445 L 173.420918 272.002445 Z M 121.858674 257.999911 " stroke="#000000" stroke-width="2" stroke-opacity="1" stroke-miterlimit="4"/><path stroke-linecap="butt" transform="matrix(0.795004, 0, 0, 0.796173, 99.21953, 31.564041)" fill-opacity="1" fill="#02d783" fill-rule="nonzero" stroke-linejoin="miter" d="M 197.354565 205.998208 L 301.422445 205.998208 L 277.488798 272.002445 L 173.420918 272.002445 Z M 197.354565 205.998208 " stroke="#000000" stroke-width="2" stroke-opacity="1" stroke-miterlimit="4"/><path stroke-linecap="butt" transform="matrix(0.795004, 0, 0, 0.796173, 99.21953, 31.564041)" fill-opacity="1" fill="#000000" fill-rule="nonzero" stroke-linejoin="miter" d="M 262.060415 298.162751 L 249.417986 294.890259 L 249.034733 311.07609 L 262.689343 312.484194 L 276.668244 296.38177 C 277.306999 295.640921 276.619109 294.517382 275.66589 294.75779 Z M 262.060415 298.162751 " stroke="#000000" stroke-width="2" stroke-opacity="1" stroke-miterlimit="4"/><path stroke-linecap="butt" transform="matrix(0.795004, 0, 0, 0.796173, 99.21953, 31.564041)" fill-opacity="1" fill="#ffffff" fill-rule="nonzero" stroke-linejoin="miter" d="M 21.991835 241.64236 C 23.004015 233.973838 30.639591 229.033211 38.054059 231.245945 L 251.412866 294.96876 L 248.666221 311.228185 L 63.176772 293.437999 C 37.253158 290.95542 18.57204 267.45432 21.991835 241.64236 Z M 21.991835 241.64236 " stroke="#000000" stroke-width="2" stroke-opacity="1" stroke-miterlimit="4"/><path fill="#02d783" d="M 131.414062 219.996094 C 126.691406 219.097656 121.960938 222.34375 121.164062 227.203125 C 118.324219 244.546875 130.445312 260.351562 147.921875 262.097656 L 291.398438 276.429688 L 291.773438 274.59375 L 156.65625 255.613281 C 139.359375 253.183594 127.980469 237.078125 131.414062 219.996094 Z M 131.414062 219.996094 " fill-opacity="1" fill-rule="evenodd"/><path stroke-linecap="butt" transform="matrix(0.795004, 0, 0, 0.796173, 99.21953, 31.564041)" fill="none" stroke-linejoin="miter" d="M 160.272399 163.720759 L 166.271779 172.72379 " stroke="#000000" stroke-width="1" stroke-opacity="1" stroke-miterlimit="4"/><path stroke-linecap="butt" transform="matrix(0.795004, 0, 0, 0.796173, 99.21953, 31.564041)" fill-opacity="1" fill="#ffffff" fill-rule="nonzero" stroke-linejoin="miter" d="M 181.267774 156.650804 L 164.856692 161.498213 L 169.858632 169.500362 L 179.233586 174.642147 C 183.134903 176.781287 187.758504 177.198321 191.984112 175.790218 L 201.201834 172.718884 C 203.442389 171.973129 203.982873 169.048983 202.155052 167.552567 L 191.360098 158.696724 C 188.544664 156.385865 184.766184 155.615578 181.267774 156.650804 Z M 181.267774 156.650804 " stroke="#000000" stroke-width="2" stroke-opacity="1" stroke-miterlimit="4"/><path stroke-linecap="round" transform="matrix(0.795004, 0, 0, 0.796173, 99.21953, 31.564041)" fill="none" stroke-linejoin="miter" d="M 89.857064 155.002293 L 94.859005 132.001634 " stroke="#000000" stroke-width="2" stroke-opacity="1" stroke-miterlimit="4"/><path stroke-linecap="butt" transform="matrix(0.795004, 0, 0, 0.796173, 99.21953, 31.564041)" fill="none" stroke-linejoin="miter" d="M 86.854917 151.499206 L 77.858303 151.499206 " stroke="#000000" stroke-width="1" stroke-opacity="1" stroke-miterlimit="4"/><path stroke-linecap="butt" transform="matrix(0.795004, 0, 0, 0.796173, 99.21953, 31.564041)" fill="none" stroke-linejoin="miter" d="M 185.856981 148.501466 L 181.857394 148.501466 " stroke="#000000" stroke-width="1" stroke-opacity="1" stroke-miterlimit="4"/><path stroke-linecap="round" transform="matrix(0.795004, 0, 0, 0.796173, 99.21953, 31.564041)" fill="none" stroke-linejoin="miter" d="M 181.356217 151.499206 L 181.857394 140.999758 " stroke="#000000" stroke-width="2" stroke-opacity="1" stroke-miterlimit="4"/><path fill="#feffff" d="M 170.476562 116.058594 C 165.183594 118.910156 161.523438 124.414062 161.277344 130.820312 L 160.320312 156 L 167.558594 156 L 185.785156 225.035156 L 182.875 225.035156 L 164.347656 156.304688 L 157.140625 156.304688 L 158.078125 132.140625 C 158.375 124.515625 163.515625 118.171875 170.476562 116.058594 Z M 251.707031 151.027344 L 248.167969 151.226562 L 248.15625 151.449219 L 251.746094 151.253906 Z M 251.707031 151.027344 " fill-opacity="1" fill-rule="evenodd"/><path stroke-linecap="butt" transform="matrix(0.795004, 0, 0, 0.796173, 99.21953, 31.564041)" fill-opacity="1" fill="#ffffff" fill-rule="nonzero" stroke-linejoin="miter" d="M 66.380372 229.528745 L 71.274216 155.002293 L 89.355887 155.002293 L 84.855123 201.999586 L 163.544788 161.959403 L 168.856279 170.525775 L 72.551725 233.144676 C 69.79034 234.940376 66.164179 232.815955 66.380372 229.528745 Z M 66.380372 229.528745 " stroke="#000000" stroke-width="2" stroke-opacity="1" stroke-miterlimit="4"/><path fill="#02d783" d="M 153.960938 213.089844 C 153.960938 210.863281 156.347656 174.210938 157.539062 156.5625 L 159.921875 156.5625 C 158.597656 174.609375 156.742188 209.109375 156.742188 210.703125 C 156.742188 212.296875 157.140625 212.695312 160.71875 212.695312 C 158.332031 214.285156 157.328125 215.480469 155.550781 215.480469 C 153.960938 215.480469 153.960938 213.886719 153.960938 213.089844 Z M 153.960938 213.089844 " fill-opacity="1" fill-rule="nonzero"/><path fill="#000000" d="M 303.34375 223.714844 C 303.03125 223.777344 302.703125 223.804688 302.371094 223.789062 C 300.175781 223.691406 298.476562 221.832031 298.574219 219.636719 C 298.632812 218.269531 299.375 217.09375 300.453125 216.425781 C 299.84375 216.050781 299.136719 215.824219 298.320312 215.789062 C 294.664062 215.625 291.277344 217.78125 291.117188 221.441406 C 290.957031 225.101562 292.726562 228.371094 296.382812 228.535156 C 300.015625 228.695312 303.144531 227.320312 303.34375 223.714844 Z M 303.34375 223.714844 " fill-opacity="1" fill-rule="evenodd"/></svg>