<svg xmlns="http://www.w3.org/2000/svg" xmlns:xlink="http://www.w3.org/1999/xlink" width="672" zoomAndPan="magnify" viewBox="0 0 504 359.999987" height="480" preserveAspectRatio="xMidYMid meet" version="1.0"><defs><clipPath id="a18e95cb46"><path d="M 179 36 L 261 36 L 261 86 L 179 86 Z M 179 36 " clip-rule="nonzero"/></clipPath></defs><path fill="#d9d9d9" d="M 101.296875 291.960938 C 114.714844 306.71875 141.953125 302.460938 159.496094 300.980469 C 203.660156 297.246094 247.140625 282.496094 291.871094 287.472656 C 312.367188 289.753906 368.78125 299.542969 378.933594 271.449219 C 385.101562 254.382812 336.613281 267.957031 329.941406 268.503906 C 293.683594 271.492188 253.25 276.347656 217.5 267.964844 C 188.601562 261.1875 162.988281 263.539062 134.429688 270.402344 C 127.050781 272.175781 89.597656 279.09375 101.296875 291.960938 Z M 101.296875 291.960938 " fill-opacity="1" fill-rule="nonzero"/><path stroke-linecap="butt" transform="matrix(0.781126, 0, 0, 0.781013, 99.051609, 36.376854)" fill="none" stroke-linejoin="miter" d="M 175.856832 246.002208 L 239.356904 270.499635 L 43.355817 253.999633 L 103.355333 246.002208 " stroke="#000000" stroke-width="2" stroke-opacity="1" stroke-miterlimit="4"/><path stroke-linecap="butt" transform="matrix(0.781126, 0, 0, 0.781013, 99.051609, 36.376854)" fill-opacity="1" fill="#ffffff" fill-rule="nonzero" stroke-linejoin="miter" d="M 197.855321 201.498716 L 182.857943 120.499159 L 173.856515 148.002497 L 186.913586 216.198173 C 187.18863 217.618603 188.208792 218.783956 189.579009 219.239094 L 271.356979 246.50236 L 271.356979 241.000692 Z M 197.855321 201.498716 " stroke="#000000" stroke-width="2" stroke-opacity="1" stroke-miterlimit="4"/><path stroke-linecap="butt" transform="matrix(0.781126, 0, 0, 0.781013, 99.051609, 36.376854)" fill-opacity="1" fill="#ffffff" fill-rule="nonzero" stroke-linejoin="miter" d="M 121.858268 36.998844 L 121.858268 104.99946 L 143.426689 104.99946 L 143.426689 81.637377 C 143.426689 78.321372 146.112115 75.635558 149.427641 75.635558 L 167.855563 75.635558 C 170.065914 75.635558 171.856198 73.845015 171.856198 71.639346 L 171.856198 28.001116 C 171.856198 25.790446 170.065914 23.999903 167.855563 23.999903 L 134.855329 23.999903 C 127.679191 23.999903 121.858268 29.821668 121.858268 36.998844 Z M 121.858268 36.998844 " stroke="#000000" stroke-width="2" stroke-opacity="1" stroke-miterlimit="4"/><path stroke-linecap="butt" transform="matrix(0.781126, 0, 0, 0.781013, 99.051609, 36.376854)" fill-opacity="1" fill="#02d783" fill-rule="nonzero" stroke-linejoin="miter" d="M 72.06037 125.875789 C 72.50544 114.177243 82.036952 104.874422 93.743809 104.714374 L 159.209192 103.819102 C 172.526304 103.634046 183.988122 113.191944 186.203473 126.330927 L 190.359133 150.998406 L 181.357705 151.498557 L 175.356753 246.002208 L 103.360334 246.002208 L 79.961623 157.500377 L 70.855179 157.500377 Z M 72.06037 125.875789 " stroke="#000000" stroke-width="2" stroke-opacity="1" stroke-miterlimit="4"/><path stroke-linecap="butt" transform="matrix(0.781126, 0, 0, 0.781013, 99.051609, 36.376854)" fill-opacity="1" fill="#000000" fill-rule="nonzero" stroke-linejoin="miter" d="M 106.445824 299.393395 L 118.947806 295.622252 L 119.972969 311.782151 L 106.385814 313.732742 L 91.778497 298.198033 C 91.108391 297.482816 91.753493 296.332467 92.708645 296.532528 Z M 106.445824 299.393395 " stroke="#000000" stroke-width="2" stroke-opacity="1" stroke-miterlimit="4"/><path stroke-linecap="butt" transform="matrix(0.781126, 0, 0, 0.781013, 99.051609, 36.376854)" fill-opacity="1" fill="#ffffff" fill-rule="nonzero" stroke-linejoin="miter" d="M 319.619634 245.787143 C 318.789502 240.155436 313.178612 236.549342 307.712745 238.139825 L 115.337234 294.03177 L 120.178002 312.30731 L 281.713622 294.807005 C 305.972469 292.181209 323.180199 269.924461 319.619634 245.787143 Z M 319.619634 245.787143 " stroke="#000000" stroke-width="2" stroke-opacity="1" stroke-miterlimit="4"/><path fill="#ffffff" d="M 195.800781 81.675781 C 195.800781 82.089844 195.71875 82.488281 195.5625 82.871094 C 195.402344 83.253906 195.175781 83.589844 194.882812 83.882812 C 194.589844 84.175781 194.253906 84.402344 193.871094 84.5625 C 193.488281 84.71875 193.089844 84.800781 192.675781 84.800781 C 192.261719 84.800781 191.863281 84.71875 191.480469 84.5625 C 191.097656 84.402344 190.757812 84.175781 190.464844 83.882812 C 190.171875 83.589844 189.945312 83.253906 189.789062 82.871094 C 189.628906 82.488281 189.550781 82.089844 189.550781 81.675781 C 189.550781 81.261719 189.628906 80.863281 189.789062 80.480469 C 189.945312 80.097656 190.171875 79.757812 190.464844 79.464844 C 190.757812 79.171875 191.097656 78.949219 191.480469 78.789062 C 191.863281 78.628906 192.261719 78.550781 192.675781 78.550781 C 193.089844 78.550781 193.488281 78.628906 193.871094 78.789062 C 194.253906 78.949219 194.589844 79.171875 194.882812 79.464844 C 195.175781 79.757812 195.402344 80.097656 195.5625 80.480469 C 195.71875 80.863281 195.800781 81.261719 195.800781 81.675781 Z M 195.800781 81.675781 " fill-opacity="1" fill-rule="nonzero"/><path stroke-linecap="round" transform="matrix(0.781126, 0, 0, 0.781013, 99.051609, 36.376854)" fill="none" stroke-linejoin="miter" d="M 122.858427 55.019308 C 122.113308 54.384115 121.133153 53.998998 120.057982 53.998998 C 117.737614 53.998998 115.857316 55.789541 115.857316 58.000211 C 115.857316 60.210881 117.737614 62.001424 120.057982 62.001424 C 121.133153 62.001424 122.113308 61.616308 122.858427 60.981115 " stroke="#000000" stroke-width="2" stroke-opacity="1" stroke-miterlimit="4"/><path stroke-linecap="butt" transform="matrix(0.781126, 0, 0, 0.781013, 99.051609, 36.376854)" fill-opacity="1" fill="#000000" fill-rule="nonzero" stroke-linejoin="miter" d="M 176.856991 50.497937 C 176.856991 50.963078 176.766977 51.408213 176.591949 51.838343 C 176.41192 52.268474 176.161881 52.648589 175.831828 52.973687 C 175.501776 53.303787 175.126717 53.553863 174.696648 53.733918 C 174.26658 53.908971 173.82151 53.998998 173.356436 53.998998 C 172.891362 53.998998 172.446292 53.908971 172.016223 53.733918 C 171.591156 53.553863 171.211096 53.303787 170.881043 52.973687 C 170.555992 52.648589 170.300951 52.268474 170.120923 51.838343 C 169.945895 51.408213 169.855881 50.963078 169.855881 50.497937 C 169.855881 50.037797 169.945895 49.587661 170.120923 49.162532 C 170.300951 48.732402 170.555992 48.352286 170.881043 48.027188 C 171.211096 47.697088 171.591156 47.44201 172.016223 47.266957 C 172.446292 47.086903 172.891362 47.001877 173.356436 47.001877 C 173.82151 47.001877 174.26658 47.086903 174.696648 47.266957 C 175.126717 47.44201 175.501776 47.697088 175.831828 48.027188 C 176.161881 48.352286 176.41192 48.732402 176.591949 49.162532 C 176.766977 49.587661 176.856991 50.037797 176.856991 50.497937 Z M 176.856991 50.497937 " stroke="#000000" stroke-width="2" stroke-opacity="1" stroke-miterlimit="4"/><path stroke-linecap="butt" transform="matrix(0.781126, 0, 0, 0.781013, 99.051609, 36.376854)" fill-opacity="1" fill="#000000" fill-rule="nonzero" stroke-linejoin="miter" d="M 161.854612 50.497937 C 161.854612 50.963078 161.769598 51.408213 161.58957 51.838343 C 161.414542 52.268474 161.159501 52.648589 160.829449 52.973687 C 160.504397 53.303787 160.124337 53.553863 159.694269 53.733918 C 159.269202 53.908971 158.81913 53.998998 158.359057 53.998998 C 157.893983 53.998998 157.443912 53.908971 157.018845 53.733918 C 156.588776 53.553863 156.208716 53.303787 155.883665 52.973687 C 155.553612 52.648589 155.298572 52.268474 155.123544 51.838343 C 154.943515 51.408213 154.858502 50.963078 154.858502 50.497937 C 154.858502 50.037797 154.943515 49.587661 155.123544 49.162532 C 155.298572 48.732402 155.553612 48.352286 155.883665 48.027188 C 156.208716 47.697088 156.588776 47.44201 157.018845 47.266957 C 157.443912 47.086903 157.893983 47.001877 158.359057 47.001877 C 158.81913 47.001877 159.269202 47.086903 159.694269 47.266957 C 160.124337 47.44201 160.504397 47.697088 160.829449 48.027188 C 161.159501 48.352286 161.414542 48.732402 161.58957 49.162532 C 161.769598 49.587661 161.854612 50.037797 161.854612 50.497937 Z M 161.854612 50.497937 " stroke="#000000" stroke-width="2" stroke-opacity="1" stroke-miterlimit="4"/><path stroke-linecap="butt" transform="matrix(0.781126, 0, 0, 0.781013, 99.051609, 36.376854)" fill="none" stroke-linejoin="miter" d="M 161.854612 50.497937 L 169.855881 50.497937 " stroke="#000000" stroke-width="1" stroke-opacity="1" stroke-miterlimit="4"/><path fill="#000000" d="M 248.226562 43.699219 C 249.695312 44.730469 251.605469 46.628906 251.207031 48.644531 C 250.480469 52.320312 243.757812 50.578125 241.007812 51.203125 C 238.476562 51.78125 237.726562 55.074219 235.523438 56.429688 C 231.257812 59.050781 227.558594 54.660156 223.847656 56.148438 C 219.851562 57.753906 219.15625 61.171875 214.160156 61.171875 C 211.425781 61.171875 208.710938 61.183594 205.996094 61.460938 C 200.28125 62.039062 201.671875 64.902344 200.886719 68.785156 C 200.628906 70.050781 199.953125 71.234375 199.265625 72.304688 C 197.917969 74.410156 196.277344 74.59375 194.761719 76.136719 C 194.007812 76.898438 192.980469 71.363281 191.726562 70.191406 C 190.238281 68.796875 188.824219 66.914062 188.160156 64.972656 C 187.363281 62.632812 189.492188 60.527344 191.375 59.507812 C 194.394531 57.871094 198.859375 57.640625 201.121094 54.832031 C 202.078125 53.648438 202.730469 52.609375 203.527344 51.296875 C 205.277344 48.410156 207.667969 45.953125 211.105469 45.652344 C 214.59375 45.347656 220.214844 44.363281 221.132812 40.171875 C 221.964844 36.386719 227.835938 36.832031 230.140625 37.945312 C 232.054688 38.867188 233.824219 40.058594 235.691406 41.070312 C 237.875 42.25 240.589844 40.214844 242.910156 41.078125 C 244.753906 41.761719 246.605469 42.558594 248.226562 43.699219 Z M 248.226562 43.699219 " fill-opacity="1" fill-rule="nonzero"/><g clip-path="url(#a18e95cb46)"><path stroke-linecap="butt" transform="matrix(0.781126, 0, 0, 0.781013, 99.051609, 36.376854)" fill="none" stroke-linejoin="miter" d="M 190.97423 9.37547 C 192.854528 10.69587 195.299916 13.126607 194.789835 15.707389 C 193.859688 20.413816 185.253323 18.18314 181.732764 18.983382 C 178.49225 19.723607 177.532098 23.939885 174.711651 25.675411 C 169.250785 29.031429 164.515034 23.409724 159.76428 25.315302 C 154.648469 27.370925 153.758328 31.747252 147.362313 31.747252 C 143.861758 31.747252 140.386207 31.762257 136.910655 32.117364 C 129.594495 32.857589 131.374777 36.5237 130.369618 41.495207 C 130.039566 43.115699 129.174428 44.631158 128.294289 46.001574 C 126.569015 48.697391 124.468682 48.932462 122.528374 50.908061 C 121.563221 51.883357 120.248013 44.796208 118.642758 43.295753 C 116.737456 41.510212 114.927169 39.099481 114.077034 36.613727 C 113.056872 33.617819 115.782304 30.922002 118.192687 29.616606 C 122.0583 27.520971 127.774206 27.225881 130.669666 23.629791 C 131.89486 22.114332 132.729992 20.783928 133.750154 19.103419 C 135.990509 15.407298 139.050995 12.261344 143.451693 11.876228 C 147.917401 11.486109 155.113542 10.225727 156.288729 4.8591 C 157.353898 0.012631 164.87009 0.582804 167.820558 2.008236 C 170.270946 3.188594 172.536306 4.714056 174.926685 6.009449 C 177.722128 7.519907 181.19768 4.914117 184.168151 6.019452 C 186.528525 6.894717 188.898901 7.915027 190.97423 9.37547 Z M 190.97423 9.37547 " stroke="#000000" stroke-width="2" stroke-opacity="1" stroke-miterlimit="4"/></g><path stroke-linecap="butt" transform="matrix(0.781126, 0, 0, 0.781013, 99.051609, 36.376854)" fill-opacity="1" fill="#000000" fill-rule="nonzero" stroke-linejoin="miter" d="M 169.855881 171.499621 C 169.855881 171.964762 169.765866 172.409897 169.590839 172.840028 C 169.41081 173.270158 169.16077 173.645272 168.830718 173.975372 C 168.505667 174.305472 168.125606 174.555548 167.695538 174.735602 C 167.26547 174.910655 166.820399 175.000683 166.355325 175.000683 C 165.895252 175.000683 165.445181 174.910655 165.015113 174.735602 C 164.590045 174.555548 164.209985 174.305472 163.879933 173.975372 C 163.554881 173.645272 163.299841 173.270158 163.124813 172.840028 C 162.944785 172.409897 162.85477 171.964762 162.85477 171.499621 C 162.85477 171.03448 162.944785 170.589345 163.124813 170.159215 C 163.299841 169.734086 163.554881 169.353971 163.879933 169.023871 C 164.209985 168.698772 164.590045 168.443695 165.015113 168.268642 C 165.445181 168.088587 165.895252 167.99856 166.355325 167.99856 C 166.820399 167.99856 167.26547 168.088587 167.695538 168.268642 C 168.125606 168.443695 168.505667 168.698772 168.830718 169.023871 C 169.16077 169.353971 169.41081 169.734086 169.590839 170.159215 C 169.765866 170.589345 169.855881 171.03448 169.855881 171.499621 Z M 169.855881 171.499621 " stroke="#000000" stroke-width="2" stroke-opacity="1" stroke-miterlimit="4"/><path stroke-linecap="butt" transform="matrix(0.781126, 0, 0, 0.781013, 99.051609, 36.376854)" fill-opacity="1" fill="#02d783" fill-rule="nonzero" stroke-linejoin="miter" d="M 121.858268 258.000846 L 225.919773 258.000846 L 277.487952 272.00009 L 173.421446 272.00009 Z M 121.858268 258.000846 " stroke="#000000" stroke-width="2" stroke-opacity="1" stroke-miterlimit="4"/><path stroke-linecap="butt" transform="matrix(0.781126, 0, 0, 0.781013, 99.051609, 36.376854)" fill-opacity="1" fill="#02d783" fill-rule="nonzero" stroke-linejoin="miter" d="M 197.355242 206.000081 L 301.421748 206.000081 L 277.487952 272.00009 L 173.421446 272.00009 Z M 197.355242 206.000081 " stroke="#000000" stroke-width="2" stroke-opacity="1" stroke-miterlimit="4"/><path stroke-linecap="butt" transform="matrix(0.781126, 0, 0, 0.781013, 99.051609, 36.376854)" fill-opacity="1" fill="#000000" fill-rule="nonzero" stroke-linejoin="miter" d="M 262.060505 298.163022 L 249.4185 294.89203 L 249.033439 311.076937 L 262.685604 312.487365 L 276.667821 296.382482 C 277.307923 295.642258 276.617814 294.516917 275.667663 294.756989 Z M 262.060505 298.163022 " stroke="#000000" stroke-width="2" stroke-opacity="1" stroke-miterlimit="4"/><path stroke-linecap="butt" transform="matrix(0.781126, 0, 0, 0.781013, 99.051609, 36.376854)" fill-opacity="1" fill="#ffffff" fill-rule="nonzero" stroke-linejoin="miter" d="M 21.992429 241.640886 C 23.00759 233.973562 30.6388 229.032063 38.054976 231.242734 L 251.413816 294.967053 L 248.668381 311.226983 L 63.17396 293.441591 C 37.25485 290.955837 18.571886 267.453712 21.992429 241.640886 Z M 21.992429 241.640886 " stroke="#000000" stroke-width="2" stroke-opacity="1" stroke-miterlimit="4"/><path fill="#02d783" d="M 130.6875 221.222656 C 126.042969 220.339844 121.394531 223.523438 120.613281 228.292969 C 117.820312 245.304688 129.730469 260.808594 146.90625 262.523438 L 287.875 276.578125 L 288.242188 274.78125 L 155.484375 256.160156 C 138.492188 253.777344 127.308594 237.980469 130.6875 221.222656 Z M 130.6875 221.222656 " fill-opacity="1" fill-rule="evenodd"/><path stroke-linecap="butt" transform="matrix(0.781126, 0, 0, 0.781013, 99.051609, 36.376854)" fill="none" stroke-linejoin="miter" d="M 160.274361 163.722263 L 166.275313 172.724993 " stroke="#000000" stroke-width="1" stroke-opacity="1" stroke-miterlimit="4"/><path stroke-linecap="butt" transform="matrix(0.781126, 0, 0, 0.781013, 99.051609, 36.376854)" fill-opacity="1" fill="#ffffff" fill-rule="nonzero" stroke-linejoin="miter" d="M 181.267691 156.650119 L 164.855088 161.50159 L 169.855881 169.499015 L 179.232368 174.640573 C 183.137987 176.781222 187.75872 177.20135 191.98439 175.790922 L 201.200852 172.719991 C 203.441207 171.969764 203.981293 169.048878 202.156004 167.553425 L 191.364292 158.695739 C 188.543845 156.385039 184.763245 155.619807 181.267691 156.650119 Z M 181.267691 156.650119 " stroke="#000000" stroke-width="2" stroke-opacity="1" stroke-miterlimit="4"/><path stroke-linecap="round" transform="matrix(0.781126, 0, 0, 0.781013, 99.051609, 36.376854)" fill="none" stroke-linejoin="miter" d="M 89.858193 154.999619 L 94.858986 131.997645 " stroke="#000000" stroke-width="2" stroke-opacity="1" stroke-miterlimit="4"/><path stroke-linecap="butt" transform="matrix(0.781126, 0, 0, 0.781013, 99.051609, 36.376854)" fill="none" stroke-linejoin="miter" d="M 86.857717 151.498557 L 77.856289 151.498557 " stroke="#000000" stroke-width="1" stroke-opacity="1" stroke-miterlimit="4"/><path stroke-linecap="butt" transform="matrix(0.781126, 0, 0, 0.781013, 99.051609, 36.376854)" fill="none" stroke-linejoin="miter" d="M 185.858419 148.497648 L 181.857784 148.497648 " stroke="#000000" stroke-width="1" stroke-opacity="1" stroke-miterlimit="4"/><path stroke-linecap="round" transform="matrix(0.781126, 0, 0, 0.781013, 99.051609, 36.376854)" fill="none" stroke-linejoin="miter" d="M 181.357705 151.498557 L 181.857784 141.000375 " stroke="#000000" stroke-width="2" stroke-opacity="1" stroke-miterlimit="4"/><path fill="#feffff" d="M 169.066406 119.261719 C 163.863281 122.058594 160.265625 127.460938 160.027344 133.746094 L 159.085938 158.445312 L 166.199219 158.445312 L 184.105469 226.164062 L 181.246094 226.164062 L 163.042969 158.742188 L 155.960938 158.742188 L 156.882812 135.039062 C 157.175781 127.558594 162.222656 121.335938 169.066406 119.261719 Z M 248.878906 153.566406 L 245.402344 153.757812 L 245.386719 153.980469 L 248.917969 153.789062 Z M 248.878906 153.566406 " fill-opacity="1" fill-rule="evenodd"/><path stroke-linecap="butt" transform="matrix(0.781126, 0, 0, 0.781013, 99.051609, 36.376854)" fill-opacity="1" fill="#ffffff" fill-rule="nonzero" stroke-linejoin="miter" d="M 66.379469 229.532215 L 71.270245 154.999619 L 89.358113 154.999619 L 84.8574 201.998868 L 163.54488 161.956728 L 168.855722 170.524325 L 72.550448 233.148311 C 69.79001 234.943856 66.164435 232.818211 66.379469 229.532215 Z M 66.379469 229.532215 " stroke="#000000" stroke-width="2" stroke-opacity="1" stroke-miterlimit="4"/><path fill="#02d783" d="M 152.835938 214.449219 C 152.835938 212.261719 155.179688 176.308594 156.351562 158.996094 L 158.695312 158.996094 C 157.394531 176.699219 155.570312 210.542969 155.570312 212.105469 C 155.570312 213.667969 155.960938 214.058594 159.476562 214.058594 C 157.132812 215.621094 156.148438 216.789062 154.398438 216.789062 C 152.835938 216.789062 152.835938 215.230469 152.835938 214.449219 Z M 152.835938 214.449219 " fill-opacity="1" fill-rule="nonzero"/><path fill="#000000" d="M 299.613281 224.867188 C 299.304688 224.929688 298.984375 224.957031 298.65625 224.941406 C 296.5 224.847656 294.832031 223.023438 294.925781 220.867188 C 294.984375 219.527344 295.710938 218.375 296.773438 217.71875 C 296.175781 217.351562 295.476562 217.128906 294.675781 217.09375 C 291.085938 216.933594 287.757812 219.046875 287.601562 222.636719 C 287.441406 226.230469 289.179688 229.4375 292.773438 229.597656 C 296.34375 229.753906 299.414062 228.40625 299.613281 224.867188 Z M 299.613281 224.867188 " fill-opacity="1" fill-rule="evenodd"/></svg>